<svg height="1024" node-id="1" sillyvg="true" template-height="1024" template-width="1024" version="1.1" viewBox="0 0 1024 1024" width="1024" xmlns="http://www.w3.org/2000/svg" xmlns:xlink="http://www.w3.org/1999/xlink"><defs node-id="42"><linearGradient gradientUnits="objectBoundingBox" id="linear-gradient" node-id="3" spreadMethod="pad" x1="0.5" x2="0.5" y1="0" y2="1"><stop offset="0" stop-color="#e1e1e1"/><stop offset="1" stop-color="#ffffff" stop-opacity="0"/></linearGradient><linearGradient gradientUnits="objectBoundingBox" id="linear-gradient-2" node-id="6" spreadMethod="pad" x1="0.5" x2="0.5" y1="0" y2="1"><stop offset="0" stop-color="#e2e2e2"/><stop offset="1" stop-color="#bcbcbc"/></linearGradient><linearGradient gradientUnits="objectBoundingBox" id="linear-gradient-5" node-id="9" spreadMethod="pad" x1="0.49999997" x2="0.49999997" y1="0" y2="0.99999994"><stop offset="0" stop-color="#ececec"/><stop offset="1" stop-color="#c5c5c5"/></linearGradient><linearGradient gradientUnits="objectBoundingBox" id="linear-gradient-7" node-id="12" spreadMethod="pad" x1="0.49999997" x2="0.49999997" y1="0" y2="0.99999994"><stop offset="0" stop-color="#d1d1d1"/><stop offset="1" stop-color="#aeacac"/></linearGradient><clipPath id="clip-暂未发布" node-id="15"><path d="M 0.00 0.00 L 1024.00 0.00 L 1024.00 1024.00 L 0.00 1024.00 Z" fill="#000000" fill-rule="nonzero" node-id="69" stroke="none" target-height="1024" target-width="1024" target-x="0" target-y="0"/></clipPath></defs><g clip-path="url(#clip-暂未发布)" id="暂未发布" node-id="17"><path d="M 0.00 0.00 L 1024.00 0.00 L 1024.00 1024.00 L 0.00 1024.00 Z" fill="#ffffff" fill-rule="nonzero" node-id="74" stroke="none" target-height="1024" target-width="1024" target-x="0" target-y="0"/><path d="M 1024.00 798.50 L 1023.72 805.91 L 1022.89 813.28 L 1021.53 820.63 L 1019.62 827.97 L 1017.14 835.32 L 1014.07 842.70 L 1010.64 849.68 L 1006.67 856.67 L 1002.16 863.66 L 997.07 870.68 L 991.37 877.72 L 985.03 884.80 L 977.31 892.58 L 968.80 900.36 L 959.44 908.12 L 949.18 915.87 L 937.98 923.61 L 926.90 930.64 L 915.00 937.59 L 902.26 944.47 L 888.62 951.26 L 874.04 957.95 L 859.61 964.06 L 844.56 969.96 L 828.88 975.62 L 812.55 981.06 L 796.26 986.05 L 779.45 990.79 L 762.11 995.27 L 744.23 999.47 L 726.40 1003.28 L 708.17 1006.79 L 689.52 1010.01 L 670.45 1012.93 L 651.43 1015.48 L 632.11 1017.71 L 612.50 1019.61 L 592.58 1021.19 L 566.04 1022.74 L 539.18 1023.68 L 512.00 1024.00 L 484.81 1023.68 L 457.96 1022.74 L 431.42 1021.19 L 411.50 1019.61 L 391.89 1017.71 L 372.57 1015.48 L 353.55 1012.93 L 334.48 1010.01 L 315.83 1006.79 L 297.60 1003.28 L 279.77 999.47 L 261.89 995.27 L 244.55 990.79 L 227.74 986.05 L 211.45 981.06 L 195.12 975.62 L 179.44 969.96 L 164.39 964.06 L 149.96 957.95 L 135.38 951.26 L 121.74 944.47 L 109.00 937.59 L 97.10 930.64 L 86.02 923.61 L 74.82 915.87 L 64.56 908.12 L 55.20 900.36 L 46.69 892.58 L 38.97 884.80 L 32.63 877.72 L 26.93 870.68 L 21.84 863.66 L 17.33 856.67 L 13.36 849.68 L 9.93 842.70 L 6.86 835.32 L 4.38 827.97 L 2.47 820.63 L 1.11 813.28 L 0.28 805.91 L 0.00 798.50 L 0.28 791.09 L 1.11 783.72 L 2.47 776.38 L 4.38 769.04 L 6.86 761.68 L 9.93 754.30 L 13.36 747.32 L 17.33 740.34 L 21.84 733.34 L 26.93 726.32 L 32.63 719.28 L 38.97 712.21 L 46.69 704.42 L 55.20 696.65 L 64.56 688.88 L 74.82 681.13 L 86.02 673.39 L 97.10 666.36 L 109.00 659.41 L 121.74 652.53 L 135.38 645.74 L 149.96 639.05 L 164.39 632.94 L 179.44 627.05 L 195.12 621.38 L 211.45 615.94 L 227.74 610.95 L 244.55 606.21 L 261.89 601.74 L 279.77 597.53 L 297.60 593.73 L 315.83 590.21 L 334.48 586.99 L 353.55 584.07 L 372.57 581.52 L 391.89 579.29 L 411.50 577.39 L 431.42 575.81 L 457.96 574.26 L 484.81 573.32 L 512.00 573.00 L 539.18 573.32 L 566.04 574.26 L 592.58 575.81 L 612.50 577.39 L 632.11 579.29 L 651.43 581.52 L 670.45 584.07 L 689.52 586.99 L 708.17 590.21 L 726.40 593.73 L 744.23 597.53 L 762.11 601.74 L 779.45 606.21 L 796.26 610.95 L 812.55 615.94 L 828.88 621.38 L 844.56 627.05 L 859.61 632.94 L 874.04 639.05 L 888.62 645.74 L 902.26 652.53 L 915.00 659.41 L 926.90 666.36 L 937.98 673.39 L 949.18 681.13 L 959.44 688.88 L 968.80 696.65 L 977.31 704.42 L 985.03 712.21 L 991.37 719.28 L 997.07 726.32 L 1002.16 733.34 L 1006.67 740.34 L 1010.64 747.32 L 1014.07 754.30 L 1017.14 761.68 L 1019.62 769.04 L 1021.53 776.38 L 1022.89 783.72 L 1023.72 791.09 L 1024.00 798.50 Z" fill="url(#linear-gradient)" fill-rule="nonzero" group-id="1,2" id="椭圆_1" node-id="20" stroke="none" target-height="450.99994" target-width="1024" target-x="0" target-y="573.00104"/><path d="M 211.00 605.00 L 220.00 605.00 L 220.00 672.00 L 211.00 672.00 Z" fill="#c5c5c5" fill-rule="nonzero" group-id="1,3,7" id="矩形_4" node-id="22" stroke="none" target-height="67" target-width="9" target-x="211" target-y="605.001"/><path d="M 215.47 497.35 L 217.81 500.03 L 223.85 507.23 L 232.10 517.73 L 236.56 523.76 L 241.10 530.27 L 245.43 536.96 L 249.35 543.62 L 252.80 550.35 L 255.39 556.55 L 256.72 560.74 L 257.47 564.47 L 257.74 567.80 L 257.50 572.19 L 256.86 576.38 L 255.83 580.39 L 254.41 584.26 L 252.61 587.98 L 250.51 591.45 L 248.09 594.68 L 245.35 597.69 L 242.34 600.43 L 239.11 602.85 L 235.64 604.95 L 231.92 606.75 L 228.06 608.17 L 224.04 609.20 L 219.85 609.84 L 215.47 610.07 L 211.08 609.84 L 206.89 609.20 L 202.87 608.17 L 199.01 606.75 L 195.29 604.95 L 191.82 602.85 L 188.59 600.43 L 185.58 597.69 L 182.84 594.68 L 180.42 591.45 L 178.32 587.98 L 176.52 584.26 L 175.10 580.39 L 174.07 576.38 L 173.43 572.19 L 173.19 567.80 L 173.46 564.47 L 174.21 560.74 L 175.54 556.55 L 178.13 550.35 L 181.58 543.62 L 185.50 536.96 L 189.83 530.27 L 194.37 523.76 L 198.83 517.73 L 207.08 507.23 L 213.12 500.03 L 215.47 497.35 Z" fill="url(#linear-gradient-2)" fill-rule="nonzero" group-id="1,3,8" id="路径_3" node-id="23" stroke="none" target-height="112.72003" target-width="84.54001" target-x="173.195" target-y="497.352"/><path d="M 800.00 634.00 L 807.00 634.00 L 807.00 691.00 L 800.00 691.00 Z" fill="#c5c5c5" fill-rule="nonzero" group-id="1,4,9" id="矩形_4-2" node-id="25" stroke="none" target-height="57" target-width="7" target-x="800" target-y="634"/><path d="M 804.58 542.93 L 806.58 545.22 L 811.74 551.37 L 818.79 560.33 L 822.59 565.48 L 826.47 571.05 L 830.17 576.76 L 833.52 582.45 L 836.47 588.19 L 838.68 593.49 L 839.81 597.07 L 840.45 600.26 L 840.68 603.10 L 840.48 606.85 L 839.93 610.43 L 839.05 613.85 L 837.84 617.15 L 835.73 621.34 L 833.16 625.15 L 830.11 628.62 L 826.64 631.68 L 822.82 634.25 L 818.63 636.36 L 815.34 637.57 L 811.91 638.45 L 808.33 639.00 L 804.58 639.20 L 800.84 639.00 L 797.26 638.45 L 793.83 637.57 L 790.53 636.36 L 786.34 634.25 L 782.53 631.68 L 779.06 628.62 L 776.01 625.15 L 773.43 621.34 L 771.33 617.15 L 770.11 613.85 L 769.23 610.43 L 768.69 606.85 L 768.49 603.10 L 768.71 600.26 L 769.36 597.07 L 770.49 593.49 L 772.70 588.19 L 775.64 582.45 L 778.99 576.76 L 782.70 571.05 L 786.57 565.48 L 790.38 560.33 L 797.43 551.37 L 802.58 545.22 L 804.58 542.93 Z" fill="url(#linear-gradient-2)" fill-rule="nonzero" group-id="1,4,10" id="路径_3-2" node-id="26" stroke="none" target-height="96.26703" target-width="72.18799" target-x="768.489" target-y="542.929"/><path d="M 881.07 678.35 L 886.37 678.35 L 886.37 710.14 L 881.07 710.14 Z" fill="#c5c5c5" fill-rule="nonzero" group-id="1,5,11" id="矩形_4-3" node-id="28" stroke="none" target-height="31.796997" target-width="5.299011" target-x="881.07306" target-y="678.346"/><path d="M 884.55 626.40 L 886.06 628.14 L 889.83 632.71 L 894.74 639.16 L 897.26 642.79 L 899.64 646.55 L 901.77 650.37 L 903.41 653.93 L 904.26 656.35 L 904.75 658.48 L 904.92 660.36 L 904.57 664.08 L 903.65 667.48 L 902.14 670.64 L 900.12 673.50 L 897.69 675.92 L 894.83 677.95 L 891.68 679.45 L 888.27 680.38 L 884.55 680.73 L 880.83 680.38 L 877.43 679.45 L 874.27 677.95 L 871.41 675.92 L 868.99 673.50 L 866.96 670.64 L 865.46 667.48 L 864.53 664.08 L 864.18 660.36 L 864.35 658.48 L 864.84 656.35 L 865.69 653.93 L 867.33 650.37 L 869.46 646.55 L 871.85 642.79 L 874.37 639.16 L 879.27 632.71 L 883.04 628.14 L 884.55 626.40 Z" fill="url(#linear-gradient-2)" fill-rule="nonzero" group-id="1,5,12" id="路径_3-3" node-id="29" stroke="none" target-height="54.325012" target-width="40.73999" target-x="864.181" target-y="626.403"/><path d="M 268.82 270.91 L 565.60 223.90 L 568.90 223.61 L 572.06 223.75 L 575.13 224.30 L 578.10 225.25 L 580.87 226.54 L 583.47 228.19 L 585.83 230.15 L 587.92 232.39 L 589.74 234.92 L 591.21 237.66 L 592.32 240.63 L 593.06 243.85 L 652.21 617.30 L 652.50 620.59 L 652.36 623.75 L 651.81 626.82 L 650.86 629.79 L 649.57 632.56 L 647.92 635.16 L 645.96 637.53 L 643.73 639.61 L 641.19 641.43 L 638.45 642.91 L 635.48 644.01 L 632.26 644.76 L 335.48 691.76 L 332.19 692.05 L 329.02 691.91 L 325.96 691.36 L 322.99 690.41 L 320.21 689.12 L 317.62 687.47 L 315.25 685.51 L 313.16 683.28 L 311.34 680.74 L 309.87 678.00 L 308.76 675.03 L 308.02 671.81 L 248.87 298.36 L 248.58 295.07 L 248.72 291.91 L 249.27 288.84 L 250.22 285.87 L 251.51 283.10 L 253.16 280.50 L 255.12 278.14 L 257.36 276.05 L 259.89 274.23 L 262.64 272.76 L 265.60 271.65 L 268.82 270.91 Z" fill="url(#linear-gradient-5)" fill-rule="nonzero" group-id="1,6,13" id="矩形_7" node-id="31" stroke="none" target-height="468.44147" target-width="403.9187" target-x="248.5825" target-y="223.61006"/><path d="M 393.71 174.98 L 691.27 216.80 L 694.50 217.48 L 697.48 218.54 L 700.25 219.96 L 702.82 221.74 L 705.09 223.79 L 707.09 226.12 L 708.78 228.69 L 710.12 231.44 L 711.12 234.39 L 711.73 237.45 L 711.92 240.61 L 711.69 243.90 L 659.07 618.32 L 658.38 621.56 L 657.33 624.54 L 655.90 627.31 L 654.13 629.88 L 652.08 632.15 L 649.75 634.15 L 647.18 635.84 L 644.43 637.18 L 641.48 638.18 L 638.42 638.79 L 635.26 638.98 L 631.96 638.75 L 334.41 596.93 L 331.17 596.25 L 328.19 595.19 L 325.42 593.76 L 322.85 591.99 L 320.58 589.94 L 318.58 587.61 L 316.89 585.04 L 315.55 582.29 L 314.55 579.34 L 313.94 576.28 L 313.75 573.12 L 313.98 569.83 L 366.60 195.40 L 367.29 192.17 L 368.34 189.19 L 369.77 186.41 L 371.54 183.85 L 373.59 181.58 L 375.92 179.58 L 378.49 177.89 L 381.24 176.54 L 384.19 175.54 L 387.25 174.94 L 390.41 174.74 L 393.71 174.98 Z" fill="url(#linear-gradient-5)" fill-opacity="0.43" fill-rule="nonzero" group-id="1,6,14" id="矩形_16" node-id="32" stroke="none" target-height="464.2389" target-width="398.17615" target-x="313.7478" target-y="174.7447"/><path d="M 393.71 174.98 L 691.27 216.80 L 694.50 217.48 L 697.48 218.54 L 700.25 219.96 L 702.82 221.74 L 705.09 223.79 L 707.09 226.12 L 708.78 228.69 L 710.12 231.44 L 711.12 234.39 L 711.73 237.45 L 711.92 240.61 L 711.69 243.90 L 659.07 618.32 L 658.38 621.56 L 657.33 624.54 L 655.90 627.31 L 654.13 629.88 L 652.08 632.15 L 649.75 634.15 L 647.18 635.84 L 644.43 637.18 L 641.48 638.18 L 638.42 638.79 L 635.26 638.98 L 631.96 638.75 L 334.41 596.93 L 331.17 596.25 L 328.19 595.19 L 325.42 593.76 L 322.85 591.99 L 320.58 589.94 L 318.58 587.61 L 316.89 585.04 L 315.55 582.29 L 314.55 579.34 L 313.94 576.28 L 313.75 573.12 L 313.98 569.83 L 366.60 195.40 L 367.29 192.17 L 368.34 189.19 L 369.77 186.41 L 371.54 183.85 L 373.59 181.58 L 375.92 179.58 L 378.49 177.89 L 381.24 176.54 L 384.19 175.54 L 387.25 174.94 L 390.41 174.74 L 393.71 174.98 Z" fill="none" group-id="1,6,15" node-id="121" stroke="none" target-height="464.2389" target-width="398.17615" target-x="313.7478" target-y="174.7447"/><path d="M 393.64 175.47 L 691.20 217.29 L 694.36 217.96 L 697.28 219.00 L 700.00 220.39 L 702.51 222.13 L 704.73 224.14 L 706.69 226.42 L 708.35 228.93 L 709.66 231.63 L 710.64 234.52 L 711.24 237.51 L 711.42 240.61 L 711.20 243.83 L 658.57 618.26 L 657.90 621.42 L 656.87 624.34 L 655.47 627.06 L 653.73 629.57 L 651.73 631.79 L 649.45 633.75 L 646.93 635.41 L 644.24 636.72 L 641.35 637.70 L 638.36 638.30 L 635.26 638.48 L 632.03 638.26 L 334.48 596.44 L 331.31 595.77 L 328.39 594.73 L 325.67 593.34 L 323.16 591.60 L 320.94 589.59 L 318.98 587.31 L 317.32 584.79 L 316.01 582.10 L 315.03 579.21 L 314.44 576.22 L 314.25 573.12 L 314.48 569.90 L 367.10 195.47 L 367.77 192.31 L 368.80 189.38 L 370.20 186.67 L 371.94 184.16 L 373.94 181.94 L 376.23 179.98 L 378.74 178.32 L 381.43 177.01 L 384.32 176.03 L 387.32 175.43 L 390.41 175.24 L 393.64 175.47 Z" fill="none" group-id="1,6,15" node-id="123" stroke="#dfdfdf" stroke-linecap="butt" stroke-width="0.99999994" target-height="463.23895" target-width="397.17612" target-x="314.24777" target-y="175.24469"/><path d="M 594.18 514.37 L 404.94 487.77 L 402.25 487.14 L 399.84 486.10 L 397.68 484.67 L 395.79 482.89 L 394.26 480.86 L 393.07 478.56 L 392.29 476.08 L 391.96 473.49 L 392.09 470.72 L 392.73 468.03 L 393.76 465.63 L 395.19 463.47 L 396.97 461.58 L 399.00 460.05 L 401.31 458.86 L 403.78 458.08 L 406.38 457.75 L 409.14 457.88 L 598.38 484.47 L 601.07 485.11 L 603.48 486.15 L 605.64 487.58 L 607.53 489.36 L 609.06 491.39 L 610.25 493.69 L 611.03 496.16 L 611.36 498.76 L 611.23 501.52 L 610.68 503.96 L 609.79 506.18 L 608.57 508.20 L 607.04 510.02 L 605.29 511.54 L 603.28 512.80 L 601.11 513.74 L 598.79 514.31 L 596.30 514.52 L 594.18 514.38 Z M 605.36 435.11 L 416.12 408.51 L 413.42 407.88 L 411.02 406.84 L 408.86 405.41 L 406.97 403.63 L 405.44 401.60 L 404.25 399.30 L 403.47 396.82 L 403.14 394.23 L 403.27 391.46 L 403.90 388.77 L 404.94 386.37 L 406.37 384.21 L 408.15 382.32 L 410.18 380.79 L 412.49 379.60 L 414.96 378.82 L 417.55 378.49 L 420.32 378.62 L 609.56 405.21 L 612.25 405.85 L 614.66 406.89 L 616.82 408.32 L 618.71 410.10 L 620.24 412.13 L 621.43 414.43 L 622.21 416.90 L 622.54 419.50 L 622.41 422.26 L 621.86 424.70 L 620.97 426.92 L 619.75 428.94 L 618.22 430.76 L 616.46 432.28 L 614.46 433.54 L 612.28 434.48 L 609.97 435.05 L 607.48 435.26 L 605.36 435.11 Z M 616.53 355.85 L 427.29 329.25 L 424.60 328.62 L 422.19 327.58 L 420.03 326.15 L 418.14 324.37 L 416.61 322.34 L 415.42 320.04 L 414.64 317.56 L 414.31 314.97 L 414.44 312.20 L 415.08 309.51 L 416.11 307.11 L 417.54 304.95 L 419.32 303.06 L 421.35 301.53 L 423.66 300.34 L 426.13 299.56 L 428.72 299.23 L 431.49 299.35 L 620.73 325.95 L 623.42 326.59 L 625.83 327.63 L 627.99 329.06 L 629.88 330.84 L 631.41 332.87 L 632.60 335.17 L 633.38 337.65 L 633.71 340.24 L 633.58 343.01 L 633.02 345.44 L 632.14 347.66 L 630.91 349.68 L 629.39 351.50 L 627.63 353.03 L 625.63 354.29 L 623.45 355.22 L 621.14 355.79 L 618.65 356.01 L 616.53 355.85 Z" fill="#ffffff" fill-rule="nonzero" group-id="1,6,16" id="联合_3" node-id="36" stroke="none" target-height="215.29852" target-width="241.74585" target-x="391.9613" target-y="299.22644"/><path d="M 665.66 473.02 L 751.89 386.78 L 770.37 405.26 L 684.14 491.49 Z" fill="url(#linear-gradient-7)" fill-rule="nonzero" group-id="1,6,17,18" id="矩形_21" node-id="38" stroke="none" target-height="104.71121" target-width="104.71118" target-x="665.6601" target-y="386.78278"/><path d="M 751.89 386.78 L 757.00 381.68 L 758.99 380.04 L 761.24 378.84 L 763.67 378.10 L 766.24 377.85 L 768.81 378.10 L 771.24 378.84 L 773.48 380.04 L 775.48 381.67 L 775.48 381.67 L 777.12 383.67 L 778.31 385.91 L 779.05 388.35 L 779.31 390.92 L 779.05 393.48 L 778.31 395.92 L 777.11 398.16 L 775.48 400.16 L 770.37 405.26 Z" fill="#dedede" fill-rule="nonzero" group-id="1,6,17,19" id="矩形_22" node-id="39" stroke="none" target-height="27.413208" target-width="27.413208" target-x="751.8939" target-y="377.847"/><path d="M 655.16 483.51 L 665.66 473.02 L 684.14 491.49 L 673.64 501.99 L 654.10 503.44 Z" fill="#dedede" fill-rule="nonzero" group-id="1,6,17" id="路径_9" node-id="40" stroke="none" target-height="30.428223" target-width="30.042175" target-x="654.09607" target-y="473.01587"/></g></svg>